# xmcd
#
# Track frame offsets:
#	255
#	17113
#	28812
#	39111
#	53054
#	69081
#	80596
#	93479
#	112912
#	123503
#	135950
#	146996
#	155965
#	167656
#	181557
#	201063
#	215473
#	231363
#	244083
#	259188
#	272502
#	282605
#
# Disc length: 3965 seconds
#
# Revision: 1
# Processed by: cddbd v1.5PL3 Copyright (c) Steve Scherf et al.
# Submitted via: audiograbber 1.82.02
#
DISCID=380f7a16
DTITLE=The Flying Burrito Brothers - In Concert
DYEAR=1994
DGENRE=Country
TTITLE0=She Belongs To Everyone But Me
TTITLE1=Somewhere Tonight
TTITLE2=Baby How'd We Ever Get This Way
TTITLE3=Too Much Honky Tonkin
TTITLE4=Midnight Magic Woman
TTITLE5=My Abandoned Heart
TTITLE6=She's A Friend Of A Friend Of Mine
TTITLE7=Louisiane
TTITLE8=Cheating Kind Of Love
TTITLE9=Why Must The Ending Always Be So Sad
TTITLE10=That's When You Know It's Over
TTITLE11=I Swear I Don't Miss Her Any More
TTITLE12=She's A Hell Of A Deal
TTITLE13=Another Shade Of Grey
TTITLE14=Damned If I'll Be Lonely Tonight
TTITLE15=If Something Should Come Between Us
TTITLE16=When You're Giving Yourself To A Stranger
TTITLE17=Run To The Night
TTITLE18=Coast To Coast
TTITLE19=Closer To You
TTITLE20=True Love Never Runs Dry
TTITLE21=Tell Me It Ain' So
EXTD=Featuring Sneaky Pete Kleinow
EXTT0=
EXTT1=
EXTT2=
EXTT3=
EXTT4=
EXTT5=
EXTT6=
EXTT7=
EXTT8=
EXTT9=
EXTT10=
EXTT11=
EXTT12=
EXTT13=
EXTT14=
EXTT15=
EXTT16=
EXTT17=
EXTT18=
EXTT19=
EXTT20=
EXTT21=
PLAYORDER=
